# xmcd CD database file
#
# Track frame offsets:
#	225
#	16620
#	59174
#	83698
#	101328
#	110804
#	121592
#	132311
#	150670
#	152534
#	188795
#	194762
#	196087
#	197450
#	201723
#	206177
#	207276
#	211409
#	217320
#	224034
#	231963
#	249166
#	259961
#	276633
#
# Disc length: 3988 seconds
#
# Revision: 0
# Processed by: cddbd v1.5PL3 Copyright (c) Steve Scherf et al.
# Submitted via: CDex 1.51
#
DISCID=7e0f9118
DTITLE=Duke Ellington - The Duke in Munich
DYEAR=1958
DGENRE=Jazz
TTITLE0=Take the A Train
TTITLE1=Medley
TTITLE2=Newport up
TTITLE3=Sophisticated Lady
TTITLE4=Sonnet to Hank Cinq
TTITLE5=What else can you do with a drum
TTITLE6=Do nothin' till you hear from me
TTITLE7=Jeep's blues
TTITLE8=Take the A train (short)
TTITLE9=Hi Fi Fo Fum
TTITLE10=Don't get around much anymore
TTITLE11=Do nothin' till you hear from me (short)
TTITLE12=In a sentimental mood
TTITLE13=Mood indigo
TTITLE14=I'm beginning to see the light
TTITLE15=Sophisticated lady (short)
TTITLE16=Caravan
TTITLE17=I got it bad and that ain't good
TTITLE18=Just squeeze me
TTITLE19=It doen't mean a thing if it ain't got that swing
TTITLE20=Satin doll
TTITLE21=In my solitude
TTITLE22=I let a song go out of my heart
TTITLE23=Diminuendo and crescendo in blue
EXTD=YEAR: 1958
EXTT0=
EXTT1=
EXTT2=
EXTT3=
EXTT4=
EXTT5=
EXTT6=
EXTT7=
EXTT8=
EXTT9=
EXTT10=
EXTT11=
EXTT12=
EXTT13=
EXTT14=
EXTT15=
EXTT16=
EXTT17=
EXTT18=
EXTT19=
EXTT20=
EXTT21=
EXTT22=
EXTT23=
PLAYORDER=
